<svg width="100" height="100" viewBox="0 0 100 100" fill="none" xmlns="http://www.w3.org/2000/svg">
<path d="M85.4166 70.536V41.6668C85.4166 25.9533 85.4166 18.0966 80.5349 13.215C75.6537 8.3335 67.7966 8.3335 52.0833 8.3335H47.9166C32.2031 8.3335 24.3464 8.3335 19.4648 13.215C14.5833 18.0966 14.5833 25.9533 14.5833 41.6668V81.2502" stroke="#1E88E5" stroke-width="1.5" stroke-linecap="round"/>
<path d="M85.4166 70.8335H24.9999C19.247 70.8335 14.5833 75.4972 14.5833 81.2502C14.5833 87.0031 19.247 91.6668 24.9999 91.6668H85.4166" stroke="#1E88E5" stroke-width="1.5" stroke-linecap="round"/>
<path d="M85.4167 91.6668C79.6638 91.6668 75 87.0031 75 81.2502C75 75.4972 79.6638 70.8335 85.4167 70.8335" stroke="#1E88E5" stroke-width="1.5" stroke-linecap="round"/>
<path d="M62.5 29.1665H37.5" stroke="#1E88E5" stroke-width="1.5" stroke-linecap="round" stroke-linejoin="round"/>
<path d="M50 45.8335H37.5" stroke="#1E88E5" stroke-width="1.5" stroke-linecap="round" stroke-linejoin="round"/>
</svg>
