<svg width="30" height="30" viewBox="0 0 30 30" fill="none" xmlns="http://www.w3.org/2000/svg">
<path d="M11.12 10.9998C11.4335 10.1087 12.0522 9.35731 12.8666 8.87868C13.681 8.40005 14.6385 8.22509 15.5696 8.38479C16.5006 8.54449 17.3451 9.02854 17.9534 9.75121C18.5618 10.4739 18.8947 11.3885 18.8933 12.3332C18.8933 14.9998 14.8933 16.3332 14.8933 16.3332M15 21.6665H15.0133M28.3333 14.9998C28.3333 22.3636 22.3638 28.3332 15 28.3332C7.63621 28.3332 1.66667 22.3636 1.66667 14.9998C1.66667 7.63604 7.63621 1.6665 15 1.6665C22.3638 1.6665 28.3333 7.63604 28.3333 14.9998Z" stroke="#114B7E" stroke-width="2" stroke-linecap="round" stroke-linejoin="round"/>
</svg>
