<svg width="16" height="20" viewBox="0 0 16 20" fill="none" xmlns="http://www.w3.org/2000/svg">
<path d="M5.44118 17.1918L3.46899 15.2265C2.04799 13.8104 1.28357 13.2554 1.55381 12.4886C1.89077 11.5325 4.01692 11.8472 4.73471 11.8472C4.73471 10.3607 4.60259 8.8152 4.87787 7.3498C5.78664 2.5126 9.7153 1 14 1C13.0302 2.3691 11.997 3.7368 11.5476 5.3823C10.9865 7.4364 11.2542 9.7304 11.2542 11.8472C11.972 11.8472 14.0982 11.5325 14.4351 12.4886C14.7413 13.3575 13.9409 13.8104 12.5199 15.2265L10.5477 17.1918C9.338 18.3973 8.7332 19 7.9945 19C7.2558 19 6.6509 18.3973 5.44118 17.1918Z" stroke="#999999" stroke-width="1.5" stroke-linecap="round" stroke-linejoin="round"/>
</svg>
