<svg width="16" height="20" viewBox="0 0 16 20" fill="none" xmlns="http://www.w3.org/2000/svg">
<path d="M5.44118 2.8082L3.46899 4.7735C2.04799 6.1896 1.28357 6.7446 1.55381 7.5114C1.89077 8.4675 4.01692 8.1528 4.73471 8.1528C4.73471 9.6393 4.60259 11.1848 4.87787 12.6502C5.78664 17.4874 9.7153 19 14 19C13.0302 17.6309 11.997 16.2632 11.5476 14.6177C10.9865 12.5636 11.2542 10.2696 11.2542 8.1528C11.972 8.1528 14.0982 8.4675 14.4351 7.5114C14.7413 6.6425 13.9409 6.1896 12.5199 4.7735L10.5477 2.8082C9.338 1.6027 8.7332 1 7.9945 1C7.2558 1 6.6509 1.6027 5.44118 2.8082Z" stroke="#999999" stroke-width="1.5" stroke-linecap="round" stroke-linejoin="round"/>
</svg>
