<svg width="100" height="100" viewBox="0 0 100 100" fill="none" xmlns="http://www.w3.org/2000/svg">
<path d="M8.33301 25L37.1373 41.3207C47.7563 47.3375 52.243 47.3375 62.8622 41.3207L91.6663 25" stroke="#1E88E5" stroke-width="4" stroke-linejoin="round"/>
<path d="M8.39872 56.1485C8.67109 68.9218 8.8073 75.3081 13.5203 80.0393C18.2333 84.7702 24.7927 84.9348 37.9115 85.2643C45.9968 85.4677 54.0026 85.4677 62.088 85.2643C75.2068 84.9348 81.7659 84.7702 86.4793 80.0393C91.1922 75.3081 91.3284 68.9218 91.6005 56.1485C91.6884 52.0414 91.6884 47.9589 91.6005 43.8518C91.3284 31.0788 91.1922 24.6922 86.4793 19.9613C81.7659 15.2303 75.2068 15.0655 62.088 14.7359C54.0026 14.5327 45.9968 14.5327 37.9114 14.7358C24.7927 15.0654 18.2333 15.2302 13.5203 19.9612C8.80726 24.6922 8.67109 31.0787 8.39867 43.8518C8.31109 47.9589 8.31113 52.0414 8.39872 56.1485Z" stroke="#1E88E5" stroke-width="4" stroke-linejoin="round"/>
</svg>
