<svg width="100" height="100" viewBox="0 0 100 100" fill="none" xmlns="http://www.w3.org/2000/svg">
<path d="M10.4167 49.9998C10.4167 31.3401 10.4167 22.0102 16.2136 16.2133C22.0105 10.4165 31.3403 10.4165 50.0001 10.4165C68.6597 10.4165 77.9897 10.4165 83.7867 16.2133C89.5834 22.0102 89.5834 31.3401 89.5834 49.9998C89.5834 68.6594 89.5834 77.9894 83.7867 83.7865C77.9897 89.5832 68.6597 89.5832 50.0001 89.5832C31.3403 89.5832 22.0105 89.5832 16.2136 83.7865C10.4167 77.9894 10.4167 68.6594 10.4167 49.9998Z" stroke="#1561A3" stroke-width="1.5"/>
<path d="M22.9167 52.0833L24.894 50.765C26.8688 49.4488 27.8562 48.7904 28.804 49.0846C29.7517 49.3792 30.1925 50.4808 31.0739 52.6846L37.5001 68.75L46.2013 42.6462C48.0347 37.146 48.9513 34.396 51.1338 32.823C53.3163 31.25 56.2151 31.25 62.0126 31.25H77.0834" stroke="#1561A3" stroke-width="1.5" stroke-linecap="round" stroke-linejoin="round"/>
<path d="M70.8333 50L64.5833 56.25M64.5833 56.25L58.3333 62.5M64.5833 56.25L70.8333 62.5M64.5833 56.25L58.3333 50" stroke="#1561A3" stroke-width="1.5" stroke-linecap="round" stroke-linejoin="round"/>
</svg>
