<svg width="48" height="48" viewBox="0 0 48 48" fill="none" xmlns="http://www.w3.org/2000/svg">
<path d="M24 34C28.4183 34 32 30.4183 32 26C32 21.5817 28.4183 18 24 18C19.5817 18 16 21.5817 16 26C16 30.4183 19.5817 34 24 34Z" stroke="#FB8C00" stroke-width="1.5" stroke-linecap="round" stroke-linejoin="round"/>
<path d="M24 12C26.2091 12 28 10.2091 28 8C28 5.79086 26.2091 4 24 4C21.7909 4 20 5.79086 20 8C20 10.2091 21.7909 12 24 12Z" stroke="#FB8C00" stroke-width="1.5" stroke-linecap="round" stroke-linejoin="round"/>
<path d="M8 44C10.2091 44 12 42.2091 12 40C12 37.7909 10.2091 36 8 36C5.79086 36 4 37.7909 4 40C4 42.2091 5.79086 44 8 44Z" stroke="#FB8C00" stroke-width="1.5" stroke-linecap="round" stroke-linejoin="round"/>
<path d="M40 44C42.2091 44 44 42.2091 44 40C44 37.7909 42.2091 36 40 36C37.7909 36 36 37.7909 36 40C36 42.2091 37.7909 44 40 44Z" stroke="#FB8C00" stroke-width="1.5" stroke-linecap="round" stroke-linejoin="round"/>
<path d="M24 18V12M37 37L30 32M11 37L18 32" stroke="#FB8C00" stroke-width="1.5" stroke-linecap="round" stroke-linejoin="round"/>
</svg>
