<svg width="32" height="32" viewBox="0 0 32 32" fill="none" xmlns="http://www.w3.org/2000/svg">
<path d="M8.71723 3.09546C8.92885 2.52352 9.73781 2.52352 9.94944 3.09546L10.898 5.6589C11.0311 6.01854 11.3146 6.30209 11.6743 6.43517L14.2377 7.38373C14.8096 7.59536 14.8096 8.40432 14.2377 8.61594L11.6743 9.5645C11.3146 9.69758 11.0311 9.98113 10.898 10.3408L9.94944 12.9042C9.73781 13.4761 8.92887 13.4761 8.71723 12.9042L7.76867 10.3408C7.63559 9.98113 7.35204 9.69758 6.9924 9.5645L4.42896 8.61594C3.85701 8.40432 3.85701 7.59537 4.42896 7.38373L6.9924 6.43517C7.35204 6.30209 7.63559 6.01854 7.76867 5.6589L8.71723 3.09546Z" stroke="#114B7E" stroke-width="2"/>
<path d="M19.2052 12.8553L21.1825 14.8327M8 29.3335H9.99679C11.6133 29.3335 12.4216 29.3335 13.1483 29.0324C13.8751 28.7314 14.4467 28.1599 15.5897 27.0168L26.4556 16.151C27.1744 15.4322 27.5337 15.0728 27.7259 14.6851C28.0913 13.9475 28.0913 13.0814 27.7259 12.3438C27.5337 11.9561 27.1744 11.5967 26.4556 10.8779C25.7368 10.1592 25.3775 9.79977 24.9897 9.60765C24.2521 9.24211 23.386 9.24211 22.6484 9.60765C22.2607 9.79977 21.9013 10.1592 21.1825 10.8779L10.3167 21.7438C9.1736 22.8868 8.60208 23.4584 8.30104 24.1852C8 24.9119 8 25.7202 8 27.3367V29.3335Z" stroke="#114B7E" stroke-width="2" stroke-linecap="round" stroke-linejoin="round"/>
</svg>
