<svg width="32" height="32" viewBox="0 0 32 32" fill="none" xmlns="http://www.w3.org/2000/svg">
<path d="M28.0001 23.3332C28.0001 25.9105 25.9107 27.9998 23.3334 27.9998C20.7561 27.9998 18.6667 25.9105 18.6667 23.3332C18.6667 20.7558 20.7561 18.6665 23.3334 18.6665C25.9107 18.6665 28.0001 20.7558 28.0001 23.3332Z" stroke="#114B7E" stroke-width="2"/>
<path d="M23.3333 18.6665H8.66667C6.08933 18.6665 4 20.7558 4 23.3332C4 25.9105 6.08933 27.9998 8.66667 27.9998H23.3333C25.9107 27.9998 28 25.9105 28 23.3332C28 20.7558 25.9107 18.6665 23.3333 18.6665Z" stroke="#114B7E" stroke-width="2"/>
<path d="M4 8.66667C4 11.244 6.08933 13.3333 8.66667 13.3333C11.244 13.3333 13.3333 11.244 13.3333 8.66667C13.3333 6.08933 11.244 4 8.66667 4C6.08933 4 4 6.08933 4 8.66667Z" stroke="#114B7E" stroke-width="2"/>
<path d="M8.66667 4H23.3333C25.9107 4 28 6.08933 28 8.66667C28 11.244 25.9107 13.3333 23.3333 13.3333H8.66667C6.08933 13.3333 4 11.244 4 8.66667C4 6.08933 6.08933 4 8.66667 4Z" stroke="#114B7E" stroke-width="2"/>
</svg>
