<svg width="32" height="32" viewBox="0 0 32 32" fill="none" xmlns="http://www.w3.org/2000/svg">
<path d="M15.5581 6.94929C15.7421 6.57224 16.2578 6.57225 16.4418 6.94929L17.5265 9.17266C17.5985 9.32024 17.7337 9.42294 17.8903 9.449L20.2482 9.84125C20.6478 9.90773 20.8071 10.4193 20.5213 10.7186L18.8333 12.4865C18.7215 12.6036 18.6699 12.7694 18.6946 12.9328L19.0666 15.4002C19.1297 15.818 18.7126 16.1343 18.3517 15.9423L16.225 14.8107C16.0837 14.7354 15.9162 14.7354 15.7749 14.8107L13.6482 15.9423C13.2873 16.1343 12.8702 15.818 12.9332 15.4002L13.3053 12.9328C13.3299 12.7694 13.2783 12.6036 13.1665 12.4865L11.4785 10.7186C11.1928 10.4193 11.352 9.90773 11.7517 9.84125L14.1095 9.449C14.2662 9.42294 14.4014 9.32024 14.4734 9.17266L15.5581 6.94929Z" stroke="#114B7E" stroke-width="2" stroke-linecap="round" stroke-linejoin="round"/>
<path d="M25.3334 11.9998C25.3334 17.1545 21.1547 21.3332 16.0001 21.3332C10.8454 21.3332 6.66675 17.1545 6.66675 11.9998C6.66675 6.84518 10.8454 2.6665 16.0001 2.6665C21.1547 2.6665 25.3334 6.84518 25.3334 11.9998Z" stroke="#114B7E" stroke-width="2" stroke-linecap="round" stroke-linejoin="round"/>
<path d="M17.3333 21.7897L19.5018 27.5349C19.9387 28.6925 20.1573 29.2713 20.5373 29.3332C20.9182 29.2769 21.3849 28.6404 21.841 27.4894C22.1677 26.6653 22.3309 26.2533 22.6673 26.0312C22.7705 25.963 22.8833 25.9092 23.0026 25.8712C23.3914 25.7476 23.8386 25.8685 24.7329 26.1102C25.6891 26.3688 26.3534 26.2966 26.6157 26.1102C26.6929 26.0554 26.6157 26.1061 26.6157 26.1061C26.7701 25.8322 26.5617 25.405 26.145 24.5506L23.2747 18.6665" stroke="#114B7E" stroke-width="2" stroke-linecap="round" stroke-linejoin="round"/>
<path d="M14.6666 21.7893L12.4981 27.5336C12.0611 28.6909 11.6289 29.2713 11.2489 29.3332C10.8679 29.2769 10.6398 28.7016 10.1837 27.5508C9.85708 26.7269 9.66892 26.2522 9.33256 26.03C9.22943 25.9618 9.11652 25.9081 8.99729 25.8701C8.60843 25.7465 8.16127 25.8674 7.26695 26.1092C6.31069 26.3676 5.64645 26.2913 5.38412 26.1049C5.22975 25.8312 5.43813 25.404 5.85489 24.5497L8.72508 18.6665" stroke="#114B7E" stroke-width="2" stroke-linecap="round" stroke-linejoin="round"/>
</svg>
